<?xml version="1.0" encoding="UTF-8"?>
<svg xmlns="http://www.w3.org/2000/svg" xmlns:xlink="http://www.w3.org/1999/xlink" width="230.11pt" height="212.43pt" viewBox="0 0 230.11 212.43" version="1.1">
<defs>
<clipPath id="clip1">
  <path d="M 0 0 L 230.109375 0 L 230.109375 212.429688 L 0 212.429688 Z M 0 0 "/>
</clipPath>
</defs>
<g id="surface1">
<g clip-path="url(#clip1)" clip-rule="nonzero">
<path style=" stroke:none;fill-rule:nonzero;fill:rgb(10.998535%,11.399841%,10.598755%);fill-opacity:1;" d="M 29.929688 154.351563 C 15.890625 165.632813 3.617188 175.640625 0.515625 178.609375 C 0.40625 178.699219 0.355469 178.8125 0.40625 178.867188 C 0.453125 178.917969 0.566406 178.898438 0.671875 178.820313 C 0.6875 178.808594 14.601563 168.597656 31.070313 156.503906 C 32.996094 160.039063 35.144531 163.496094 37.511719 166.859375 C 32.546875 171.125 28.78125 174.5 27.519531 175.964844 C 27.445313 176.027344 27.433594 176.136719 27.496094 176.207031 C 27.554688 176.273438 27.652344 176.289063 27.726563 176.238281 C 27.734375 176.230469 32.234375 173.09375 38.726563 168.554688 C 39.222656 169.230469 39.730469 169.902344 40.242188 170.570313 C 41.605469 172.339844 43.015625 174.058594 44.46875 175.71875 C 26.226563 190.316406 4.140625 208.15625 0.105469 212.15625 C 0.0117188 212.234375 -0.0273438 212.34375 0.0234375 212.398438 C 0.0664063 212.449219 0.171875 212.4375 0.265625 212.371094 C 0.289063 212.355469 26.0625 193.597656 46.902344 178.410156 C 83.75 217.789063 145.195313 223.445313 188.804688 189.863281 C 230.871094 157.46875 241.875 99.683594 216.859375 54.625 C 217.613281 53.394531 218.355469 52.152344 219.074219 50.894531 C 220.890625 47.773438 222.3125 45.070313 223.867188 41.8125 C 225.253906 38.898438 228.117188 32.484375 227.730469 28.667969 C 227.664063 28 227.410156 27.199219 226.972656 26.683594 C 226.441406 26.0625 225.835938 25.664063 225.058594 25.433594 C 219.734375 23.671875 207.15625 26.734375 201.628906 28.242188 C 200.21875 28.625 198.832031 29.019531 197.460938 29.433594 C 160.289063 -6.265625 101.609375 -10.390625 59.539063 22.007813 C 18.363281 53.71875 6.949219 109.742188 29.929688 154.351563 "/>
</g>
<path style=" stroke:none;fill-rule:nonzero;fill:rgb(100%,96.099854%,90.19928%);fill-opacity:1;" d="M 48.746094 172.296875 C 60.523438 162.890625 69.765625 155.566406 69.800781 155.539063 C 70.632813 154.847656 71.648438 154.367188 72.679688 154.078125 C 74.160156 153.65625 75.507813 153.679688 75.792969 154.054688 C 76.082031 154.433594 75.761719 155.746094 74.976563 157.074219 C 74.5625 157.773438 73.855469 158.746094 72.871094 159.4375 C 72.058594 160.0625 62.910156 166.738281 51.363281 175.15625 C 88.679688 214.449219 150.734375 217.113281 191.304688 180.671875 C 226.046875 149.464844 233.957031 99.519531 213.476563 59.875 C 209.964844 65.046875 206.070313 69.9375 201.605469 74.46875 C 195.808594 80.351563 190.199219 84.816406 183.523438 89.902344 C 189.355469 111.566406 183.074219 135.644531 165.246094 151.660156 C 150.25 165.132813 130.457031 169.871094 112.101563 166.210938 C 111.933594 166.339844 111.765625 166.46875 111.59375 166.597656 C 111.132813 166.945313 110.542969 166.980469 110.042969 166.691406 C 109.628906 166.453125 109.378906 166.035156 109.339844 165.59375 C 97.808594 162.738281 86.980469 156.515625 78.445313 147.011719 C 77.285156 145.722656 76.191406 144.394531 75.160156 143.039063 C 66.792969 148.929688 53.566406 158.183594 43.207031 165.425781 C 44.9375 167.773438 46.78125 170.066406 48.746094 172.296875 "/>
<path style=" stroke:none;fill-rule:nonzero;fill:rgb(100%,96.099854%,90.19928%);fill-opacity:1;" d="M 34.285156 150.859375 C 45.375 141.972656 57.070313 132.675781 65.933594 125.648438 C 63.675781 118.96875 62.609375 111.992188 62.710938 105.042969 C 62.46875 104.957031 62.25 104.800781 62.078125 104.585938 C 61.59375 103.972656 61.699219 103.085938 62.308594 102.605469 C 62.476563 102.472656 62.648438 102.335938 62.816406 102.203125 C 63.765625 86.648438 70.585938 71.445313 83.09375 60.210938 C 103.371094 41.996094 132.421875 39.746094 154.828125 52.640625 C 158.113281 50.078125 161.183594 47.792969 164.746094 45.253906 C 168.773438 42.375 172.332031 40.164063 176.691406 37.832031 C 181.539063 35.246094 186.421875 33.15625 191.503906 31.367188 C 153.820313 -2.742188 95.679688 -3.515625 57.035156 31.199219 C 22.625 62.113281 14.535156 111.402344 34.285156 150.859375 "/>
<path style=" stroke:none;fill-rule:nonzero;fill:rgb(100%,96.099854%,90.19928%);fill-opacity:1;" d="M 67.488281 129.753906 C 58.371094 136.457031 46.609375 145.097656 35.515625 153.242188 C 37.355469 156.683594 39.414063 160.042969 41.6875 163.304688 C 51.527344 154.976563 64.089844 144.6875 71.914063 138.316406 C 70.199219 135.554688 68.722656 132.691406 67.488281 129.753906 "/>
<path style=" stroke:none;fill-rule:nonzero;fill:rgb(10.998535%,11.399841%,10.598755%);fill-opacity:1;" d="M 145.777344 40.214844 L 152.414063 42.78125 L 158.914063 25.984375 L 165.335938 28.46875 L 167.226563 23.578125 L 147.859375 16.085938 L 145.96875 20.976563 L 152.277344 23.414063 L 145.777344 40.214844 "/>
<path style=" stroke:none;fill-rule:nonzero;fill:rgb(10.998535%,11.399841%,10.598755%);fill-opacity:1;" d="M 132.898438 22.492188 L 123.382813 22.433594 L 123.40625 18.703125 L 133.515625 18.765625 L 133.546875 13.664063 L 116.324219 13.554688 L 116.175781 36.804688 L 133.949219 36.917969 L 133.980469 31.816406 L 123.320313 31.75 L 123.351563 27.46875 L 132.867188 27.527344 L 132.898438 22.492188 "/>
<path style=" stroke:none;fill-rule:nonzero;fill:rgb(10.998535%,11.399841%,10.598755%);fill-opacity:1;" d="M 92.949219 44.101563 L 90.738281 38.816406 C 90.011719 37.078125 89.292969 35.421875 88.585938 33.835938 C 87.875 32.253906 87.171875 30.753906 86.476563 29.34375 L 86.621094 29.28125 C 87.765625 30.34375 88.980469 31.394531 90.273438 32.4375 C 91.5625 33.484375 92.792969 34.4375 93.960938 35.300781 L 101.117188 40.683594 L 108.007813 37.800781 L 99.035156 16.347656 L 93.050781 18.851563 L 95.179688 23.945313 C 95.84375 25.535156 96.53125 27.0625 97.238281 28.527344 C 97.945313 29.996094 98.683594 31.398438 99.457031 32.738281 L 99.347656 32.785156 C 98.261719 31.734375 97.105469 30.691406 95.886719 29.648438 C 94.671875 28.609375 93.492188 27.6875 92.359375 26.882813 L 85.71875 21.921875 L 77.992188 25.152344 L 86.964844 46.601563 L 92.949219 44.101563 "/>
<path style=" stroke:none;fill-rule:evenodd;fill:rgb(10.998535%,11.399841%,10.598755%);fill-opacity:1;" d="M 63.6875 54.949219 L 61.367188 51.296875 C 60.996094 50.695313 60.570313 50.039063 60.082031 49.332031 C 59.597656 48.625 59.160156 47.957031 58.765625 47.332031 L 58.816406 47.273438 C 59.480469 47.605469 60.199219 47.964844 60.96875 48.355469 C 61.742188 48.746094 62.449219 49.097656 63.085938 49.40625 L 66.996094 51.316406 Z M 71.046875 53.675781 L 76.167969 56.046875 L 81.328125 50.375 L 58.8125 40.570313 L 52.460938 47.550781 L 64.464844 68.902344 L 69.414063 63.464844 L 66.441406 58.734375 L 71.046875 53.675781 "/>
<path style=" stroke:none;fill-rule:evenodd;fill:rgb(10.998535%,11.399841%,10.598755%);fill-opacity:1;" d="M 56.503906 89.917969 L 62.371094 73.640625 L 57.472656 71.878906 L 54.019531 81.460938 L 37.042969 75.339844 L 34.628906 82.03125 L 56.503906 89.917969 "/>
<path style=" stroke:none;fill-rule:evenodd;fill:rgb(10.998535%,11.399841%,10.598755%);fill-opacity:1;" d="M 36.554688 109.980469 C 36.515625 109.804688 36.480469 109.539063 36.445313 109.191406 C 36.410156 108.839844 36.390625 108.40625 36.378906 107.898438 C 36.367188 106.539063 36.613281 105.527344 37.125 104.855469 C 37.632813 104.183594 38.328125 103.839844 39.203125 103.828125 C 40.214844 103.820313 41.011719 104.210938 41.597656 104.992188 C 42.183594 105.773438 42.496094 106.859375 42.53125 108.253906 C 42.539063 108.621094 42.535156 108.9375 42.527344 109.191406 C 42.519531 109.449219 42.507813 109.675781 42.492188 109.867188 Z M 55.28125 116.664063 L 55.152344 109.628906 L 47.25 109.777344 C 47.25 109.5625 47.253906 109.308594 47.269531 109.015625 C 47.285156 108.722656 47.289063 108.398438 47.285156 108.046875 C 47.253906 106.242188 47.027344 104.597656 46.605469 103.105469 C 46.183594 101.609375 45.550781 100.335938 44.707031 99.28125 C 44.011719 98.445313 43.171875 97.816406 42.183594 97.394531 C 41.199219 96.976563 40.113281 96.773438 38.933594 96.792969 C 37.730469 96.828125 36.652344 97.128906 35.699219 97.691406 C 34.746094 98.253906 33.980469 98.996094 33.402344 99.925781 C 32.796875 100.859375 32.355469 102.023438 32.070313 103.421875 C 31.785156 104.820313 31.660156 106.472656 31.699219 108.378906 C 31.738281 110.375 31.824219 112.089844 31.949219 113.523438 C 32.078125 114.949219 32.21875 116.144531 32.378906 117.097656 L 55.28125 116.664063 "/>
<path style=" stroke:none;fill-rule:evenodd;fill:rgb(10.998535%,11.399841%,10.598755%);fill-opacity:1;" d="M 215.097656 110.542969 C 215.414063 109.746094 215.679688 108.648438 215.890625 107.238281 C 216.097656 105.835938 216.167969 104.320313 216.097656 102.695313 C 215.945313 100.121094 215.488281 98.019531 214.730469 96.386719 C 213.972656 94.757813 213.015625 93.570313 211.855469 92.820313 C 210.699219 92.074219 209.445313 91.738281 208.097656 91.8125 C 206.484375 91.890625 205.136719 92.511719 204.054688 93.6875 C 202.96875 94.859375 202.105469 96.648438 201.464844 99.054688 C 201.027344 100.742188 200.648438 101.976563 200.320313 102.757813 C 199.992188 103.535156 199.550781 103.9375 198.992188 103.953125 C 198.46875 103.980469 198.035156 103.714844 197.695313 103.160156 C 197.359375 102.609375 197.15625 101.789063 197.09375 100.703125 C 197.039063 99.382813 197.109375 98.234375 197.296875 97.257813 C 197.480469 96.277344 197.679688 95.496094 197.894531 94.910156 L 192.820313 93.683594 C 192.53125 94.558594 192.308594 95.585938 192.148438 96.769531 C 191.992188 97.953125 191.953125 99.328125 192.027344 100.890625 C 192.253906 104.253906 193.089844 106.828125 194.535156 108.609375 C 195.984375 110.390625 197.757813 111.234375 199.855469 111.152344 C 201.566406 111.03125 202.949219 110.273438 204.007813 108.875 C 205.066406 107.480469 205.886719 105.628906 206.460938 103.324219 C 206.8125 101.820313 207.167969 100.730469 207.527344 100.054688 C 207.886719 99.378906 208.339844 99.03125 208.894531 99.015625 C 209.484375 98.980469 209.964844 99.257813 210.328125 99.835938 C 210.691406 100.417969 210.910156 101.316406 210.980469 102.53125 C 211.035156 103.886719 210.953125 105.175781 210.730469 106.390625 C 210.507813 107.609375 210.230469 108.636719 209.894531 109.480469 L 215.097656 110.542969 "/>
<path style=" stroke:none;fill-rule:evenodd;fill:rgb(10.998535%,11.399841%,10.598755%);fill-opacity:1;" d="M 208.308594 140.746094 C 208.875 140.101563 209.492188 139.148438 210.15625 137.894531 C 210.824219 136.640625 211.398438 135.234375 211.871094 133.683594 C 212.585938 131.203125 212.859375 129.066406 212.6875 127.277344 C 212.519531 125.488281 212.011719 124.046875 211.171875 122.957031 C 210.328125 121.867188 209.261719 121.132813 207.964844 120.753906 C 206.417969 120.285156 204.941406 120.421875 203.523438 121.167969 C 202.113281 121.910156 200.699219 123.3125 199.292969 125.363281 C 198.320313 126.808594 197.550781 127.84375 196.980469 128.472656 C 196.410156 129.097656 195.859375 129.324219 195.328125 129.15625 C 194.824219 129.003906 194.507813 128.609375 194.371094 127.976563 C 194.238281 127.34375 194.320313 126.503906 194.621094 125.457031 C 195.015625 124.195313 195.460938 123.136719 195.964844 122.277344 C 196.464844 121.417969 196.914063 120.746094 197.308594 120.265625 L 192.941406 117.414063 C 192.371094 118.144531 191.820313 119.039063 191.277344 120.101563 C 190.734375 121.164063 190.234375 122.445313 189.785156 123.945313 C 188.871094 127.191406 188.804688 129.894531 189.574219 132.058594 C 190.347656 134.21875 191.734375 135.609375 193.738281 136.230469 C 195.390625 136.6875 196.949219 136.433594 198.414063 135.472656 C 199.878906 134.507813 201.265625 133.035156 202.574219 131.054688 C 203.410156 129.757813 204.109375 128.847656 204.675781 128.328125 C 205.238281 127.8125 205.78125 127.636719 206.308594 127.808594 C 206.878906 127.972656 207.234375 128.390625 207.386719 129.058594 C 207.535156 129.730469 207.441406 130.648438 207.101563 131.816406 C 206.703125 133.113281 206.195313 134.300781 205.578125 135.371094 C 204.964844 136.441406 204.355469 137.320313 203.761719 138.007813 L 208.308594 140.746094 "/>
<path style=" stroke:none;fill-rule:evenodd;fill:rgb(10.998535%,11.399841%,10.598755%);fill-opacity:1;" d="M 191.492188 144.648438 L 185.898438 152.351563 L 182.878906 150.15625 L 188.820313 141.976563 L 184.691406 138.980469 L 174.570313 152.914063 L 193.382813 166.578125 L 203.828125 152.199219 L 199.699219 149.199219 L 193.433594 157.824219 L 189.96875 155.308594 L 195.566406 147.605469 L 191.492188 144.648438 "/>
<path style=" stroke:none;fill-rule:evenodd;fill:rgb(10.998535%,11.399841%,10.598755%);fill-opacity:1;" d="M 162.40625 168.128906 C 162.527344 168.003906 162.738281 167.824219 163.042969 167.589844 C 163.347656 167.355469 163.773438 167.050781 164.324219 166.683594 C 165.316406 166.027344 166.199219 165.726563 166.980469 165.769531 C 167.765625 165.816406 168.398438 166.199219 168.886719 166.917969 C 169.363281 167.648438 169.441406 168.433594 169.121094 169.261719 C 168.804688 170.089844 168.085938 170.882813 166.972656 171.640625 L 165.433594 172.667969 Z M 166.914063 187.5625 L 172.769531 183.65625 L 167.921875 176.394531 L 168.871094 175.761719 C 169.753906 175.132813 170.566406 174.847656 171.3125 174.898438 C 172.058594 174.953125 172.945313 175.445313 173.972656 176.382813 C 175.09375 177.375 176.035156 178.15625 176.804688 178.722656 C 177.574219 179.285156 178.136719 179.65625 178.496094 179.832031 L 184.515625 175.816406 C 184.191406 175.644531 183.726563 175.316406 183.117188 174.828125 C 182.507813 174.34375 181.84375 173.792969 181.113281 173.1875 C 180.390625 172.578125 179.691406 172.007813 179.019531 171.480469 C 178.1875 170.820313 177.355469 170.347656 176.511719 170.050781 C 175.671875 169.757813 174.796875 169.699219 173.890625 169.882813 L 173.832031 169.796875 C 174.535156 168.902344 175.007813 167.792969 175.246094 166.46875 C 175.488281 165.144531 175.230469 163.859375 174.46875 162.609375 C 173.84375 161.679688 173.117188 160.988281 172.289063 160.539063 C 171.460938 160.089844 170.535156 159.863281 169.515625 159.859375 C 168.316406 159.863281 167.023438 160.15625 165.636719 160.742188 C 164.25 161.332031 162.71875 162.191406 161.039063 163.320313 C 159.5625 164.3125 158.242188 165.257813 157.085938 166.148438 C 155.925781 167.042969 154.964844 167.828125 154.199219 168.511719 L 166.914063 187.5625 "/>
<path style=" stroke:none;fill-rule:evenodd;fill:rgb(10.998535%,11.399841%,10.598755%);fill-opacity:1;" d="M 137.65625 177.757813 C 137.820313 177.683594 138.070313 177.597656 138.40625 177.492188 C 138.742188 177.390625 139.160156 177.28125 139.660156 177.171875 C 140.988281 176.894531 142.03125 176.9375 142.789063 177.304688 C 143.550781 177.667969 144.023438 178.28125 144.210938 179.140625 C 144.410156 180.128906 144.191406 180.988281 143.539063 181.71875 C 142.890625 182.445313 141.886719 182.964844 140.527344 183.273438 C 140.164063 183.355469 139.855469 183.414063 139.605469 183.457031 C 139.351563 183.5 139.128906 183.53125 138.9375 183.554688 Z M 134.796875 197.433594 L 141.664063 195.917969 L 139.960938 188.199219 C 140.175781 188.15625 140.425781 188.113281 140.714844 188.070313 C 141.003906 188.027344 141.320313 187.96875 141.667969 187.894531 C 143.429688 187.511719 144.996094 186.964844 146.378906 186.257813 C 147.757813 185.546875 148.882813 184.675781 149.753906 183.640625 C 150.433594 182.792969 150.882813 181.84375 151.101563 180.792969 C 151.320313 179.742188 151.304688 178.640625 151.050781 177.484375 C 150.777344 176.316406 150.273438 175.316406 149.53125 174.492188 C 148.796875 173.671875 147.914063 173.066406 146.890625 172.683594 C 145.855469 172.273438 144.628906 172.066406 143.199219 172.066406 C 141.773438 172.0625 140.128906 172.269531 138.269531 172.679688 C 136.316406 173.113281 134.652344 173.535156 133.273438 173.9375 C 131.898438 174.347656 130.757813 174.722656 129.855469 175.066406 L 134.796875 197.433594 "/>
<path style=" stroke:none;fill-rule:evenodd;fill:rgb(10.998535%,11.399841%,10.598755%);fill-opacity:1;" d="M 121.761719 198.296875 L 116.027344 185.351563 L 124.898438 175.253906 L 116.894531 174 L 114.722656 177.429688 C 114.359375 178.003906 114.011719 178.5625 113.679688 179.113281 C 113.34375 179.660156 112.976563 180.277344 112.574219 180.96875 L 112.5 180.957031 C 112.316406 180.257813 112.132813 179.578125 111.949219 178.929688 C 111.769531 178.277344 111.566406 177.589844 111.347656 176.867188 L 110.132813 172.9375 L 102.089844 171.679688 L 107.421875 184.144531 L 98.21875 194.605469 L 106.183594 195.855469 L 108.523438 192.347656 C 108.949219 191.6875 109.359375 191.0625 109.753906 190.476563 C 110.148438 189.886719 110.515625 189.28125 110.851563 188.660156 L 110.929688 188.675781 C 111.152344 189.382813 111.371094 190.078125 111.59375 190.769531 C 111.8125 191.457031 112.058594 192.191406 112.324219 192.976563 L 113.640625 197.023438 L 121.761719 198.296875 "/>
<path style=" stroke:none;fill-rule:evenodd;fill:rgb(10.998535%,11.399841%,10.598755%);fill-opacity:1;" d="M 93.292969 177.183594 L 85.007813 172.496094 L 86.84375 169.25 L 95.644531 174.226563 L 98.15625 169.78125 L 83.160156 161.308594 L 71.71875 181.546875 L 87.191406 190.292969 L 89.703125 185.855469 L 80.421875 180.605469 L 82.53125 176.878906 L 90.816406 181.5625 L 93.292969 177.183594 "/>
<path style=" stroke:none;fill-rule:evenodd;fill:rgb(43.899536%,75.698853%,41.19873%);fill-opacity:1;" d="M 224.769531 28.449219 C 224.613281 28.289063 224.449219 28.191406 224.234375 28.128906 C 223.773438 27.980469 223.367188 27.890625 222.886719 27.824219 C 217.882813 27.207031 208.316406 29.332031 202.371094 30.960938 C 198.207031 32.09375 194.726563 33.195313 190.667969 34.667969 C 186.09375 36.347656 182.324219 38.03125 178.019531 40.320313 C 173.773438 42.605469 170.3125 44.757813 166.382813 47.546875 C 162.035156 50.65625 158.429688 53.371094 154.242188 56.691406 L 154.230469 56.699219 C 144.15625 64.542969 136.308594 72.03125 128 81.726563 C 127.730469 82.042969 127.378906 82.210938 126.964844 82.21875 C 123.765625 82.300781 121.070313 82.515625 117.898438 82.945313 C 100.871094 85.230469 83.605469 91.167969 69.351563 100.917969 C 70.445313 100.730469 71.375 100.597656 72.476563 100.460938 C 76.125 99.992188 79.253906 99.925781 82.917969 100.238281 C 86.261719 100.507813 89.054688 101.21875 92.121094 102.578125 C 95.523438 104.09375 98.035156 106.238281 100.070313 109.359375 L 100.609375 110.1875 L 96.105469 116.160156 C 94.140625 118.738281 92.550781 120.96875 90.765625 123.667969 C 90.445313 124.160156 90.046875 125.140625 90.457031 125.730469 L 96.433594 133.492188 C 96.832031 133.976563 97.890625 133.898438 98.492188 133.707031 C 101.253906 132.777344 103.554688 131.917969 106.246094 130.808594 L 114.039063 127.632813 L 114.703125 128.363281 C 116.734375 130.597656 118 132.910156 118.789063 135.824219 C 119.644531 139.035156 119.835938 141.894531 119.425781 145.191406 C 118.769531 150.613281 117.234375 155.324219 115.035156 160.191406 C 120.734375 155.261719 125.101563 150.570313 129.617188 144.539063 C 135.199219 137.09375 139.660156 129.5 143.425781 121.089844 C 145.242188 117.046875 146.550781 113.535156 147.816406 109.289063 C 147.933594 108.894531 148.183594 108.601563 148.554688 108.421875 C 160.050781 102.863281 169.296875 97.1875 179.453125 89.449219 C 182.972656 86.785156 185.914063 84.496094 189.359375 81.734375 C 193.140625 78.691406 196.1875 75.9375 199.601563 72.488281 C 206.25 65.730469 211.890625 57.753906 216.632813 49.492188 C 218.398438 46.429688 219.789063 43.785156 221.320313 40.601563 C 222.269531 38.621094 225.238281 32.109375 224.929688 28.96875 C 224.914063 28.777344 224.863281 28.617188 224.769531 28.449219 "/>
<path style=" stroke:none;fill-rule:evenodd;fill:rgb(88.598633%,11.799622%,14.898682%);fill-opacity:1;" d="M 180.441406 92.238281 C 170.578125 99.6875 161.527344 105.230469 150.339844 110.6875 C 149.085938 114.84375 147.789063 118.28125 146 122.238281 C 142.125 130.863281 137.617188 138.582031 131.871094 146.230469 C 126.90625 152.863281 121.914063 158.179688 115.839844 163.234375 C 130.796875 165.40625 146.578125 161.757813 159.496094 151.808594 C 178.210938 137.398438 185.675781 113.800781 180.441406 92.238281 "/>
<path style=" stroke:none;fill-rule:evenodd;fill:rgb(88.598633%,11.799622%,14.898682%);fill-opacity:1;" d="M 110.878906 162.289063 C 115.621094 153.1875 120.101563 139.585938 113.25 131 L 107.316406 133.414063 C 104.5625 134.566406 102.199219 135.449219 99.367188 136.386719 C 97.640625 136.949219 95.460938 136.785156 94.238281 135.265625 L 88.148438 127.351563 C 87.015625 125.796875 87.410156 123.640625 88.40625 122.125 C 90.234375 119.363281 91.855469 117.085938 93.863281 114.453125 L 97.148438 110.097656 C 95.46875 107.847656 93.542969 106.304688 90.976563 105.152344 C 88.210938 103.933594 85.695313 103.296875 82.679688 103.046875 C 79.21875 102.761719 76.269531 102.824219 72.824219 103.257813 C 70.492188 103.546875 68.429688 103.898438 66.289063 104.386719 C 66.117188 110.730469 66.980469 117.121094 68.914063 123.285156 C 75.972656 117.699219 80.617188 114.035156 80.640625 114.015625 C 81.484375 113.3125 82.507813 112.824219 83.539063 112.523438 C 85.027344 112.085938 86.375 112.085938 86.660156 112.453125 C 86.941406 112.824219 86.601563 114.136719 85.796875 115.464844 C 85.375 116.164063 84.652344 117.140625 83.65625 117.84375 C 83.085938 118.277344 77.9375 122.070313 70.453125 127.574219 C 71.621094 130.476563 73.039063 133.308594 74.710938 136.042969 C 77.542969 133.742188 79.28125 132.339844 79.304688 132.320313 C 80.273438 131.503906 81.480469 130.96875 82.710938 130.660156 C 84.484375 130.21875 86.117188 130.3125 86.488281 130.792969 C 86.855469 131.273438 86.535156 132.890625 85.65625 134.492188 C 85.191406 135.339844 84.382813 136.507813 83.222656 137.3125 C 82.765625 137.664063 80.890625 139 78.082031 140.980469 C 78.152344 141.074219 78.226563 141.167969 78.296875 141.265625 C 86.75 152.242188 98.367188 159.347656 110.878906 162.289063 "/>
<path style=" stroke:none;fill-rule:evenodd;fill:rgb(88.598633%,11.799622%,14.898682%);fill-opacity:1;" d="M 66.644531 99.371094 C 81.59375 88.867188 99.5625 82.542969 117.523438 80.152344 C 120.582031 79.738281 123.183594 79.519531 126.265625 79.421875 C 134.398438 69.996094 142.066406 62.664063 151.789063 55.03125 C 132.28125 44.460938 107.554688 45.652344 88.84375 60.0625 C 75.917969 70.015625 68.359375 84.351563 66.644531 99.371094 "/>
</g>
</svg>
